<?xml version="1.0" ?>

<svg version="1.1"
     xmlns="http://www.w3.org/2000/svg"
     xmlns:xlink="http://www.w3.org/1999/xlink"
     height="100%" viewBox="0 0 855 690"
     preserveAspectRatio="xMinYMin">

    <defs>
        <marker id="beginArrow" markerWidth="12" markerHeight="12" refX="0" refY="6" orient="auto">
            <path d="M0,6 L12,0 L12,12 L0,6" style="fill: #000000;" />
        </marker>
        <marker id="endArrow" markerWidth="12" markerHeight="12" refX="12" refY="6" orient="auto">
            <path d="M0,0 L12,6 L0,12 L0,0 " style="fill: #000000;" />
        </marker>
    </defs>

    <!-- Pile -->
    <line x1="40" y1="10" x2="40" y2="610" style="stroke:#000000;
        marker-start: url(#beginArrow);
        marker-end: url(#endArrow);" />

    <line x1="75" y1="650" x2="855" y2="650" style="stroke:#000000;
        marker-start: url(#beginArrow);
        marker-end: url(#endArrow);" />

    <!-- Text: Mål -->
    <text style="text-anchor: middle" transform="translate(30,300) rotate(-90)">600 cm</text>
    <text style="text-anchor: middle" x="502" y="670">780 cm</text>

    <svg version="1.1" xmlns="http://www.w3.org/2000/svg" xmlns:xlink="http://www.w3.org/1999/xlink" x="75" y="10" width="800" height="600" viewBox="0 0 780 600" preserveAspectRatio="xMinYMin">

        <!-- Ramme -->
        <rect x="0" y="0" height="600" width="780" style="stroke:#000000; fill: #ffffff" />


        <!-- Remme -->
        <rect x="0" y="35" height="4.5" width="780" style="stroke:#000000; fill: #ffffff" />
        <rect x="0" y="565" height="4.5" width="780" style="stroke:#000000; fill: #ffffff" />

        <!-- Spær -->
        <rect x="0" y="0" height="600" width="4.5" style="stroke:#000000; fill: #ffffff" />
        <rect x="55" y="0" height="600" width="4.5" style="stroke:#000000; fill: #ffffff" />
        <rect x="110" y="0" height="600" width="4.5" style="stroke:#000000; fill: #ffffff" />
        <rect x="165" y="0" height="600" width="4.5" style="stroke:#000000; fill: #ffffff" />
        <rect x="220" y="0" height="600" width="4.5" style="stroke:#000000; fill: #ffffff" />
        <rect x="275" y="0" height="600" width="4.5" style="stroke:#000000; fill: #ffffff" />
        <rect x="330" y="0" height="600" width="4.5" style="stroke:#000000; fill: #ffffff" />
        <rect x="385" y="0" height="600" width="4.5" style="stroke:#000000; fill: #ffffff" />
        <rect x="440" y="0" height="600" width="4.5" style="stroke:#000000; fill: #ffffff" />
        <rect x="495" y="0" height="600" width="4.5" style="stroke:#000000; fill: #ffffff" />
        <rect x="550" y="0" height="600" width="4.5" style="stroke:#000000; fill: #ffffff" />
        <rect x="605" y="0" height="600" width="4.5" style="stroke:#000000; fill: #ffffff" />
        <rect x="660" y="0" height="600" width="4.5" style="stroke:#000000; fill: #ffffff" />
        <rect x="715" y="0" height="600" width="4.5" style="stroke:#000000; fill: #ffffff" />
        <rect x="775.5" y="0" height="600" width="4.5" style="stroke:#000000; fill: #ffffff" />

        <!-- Kryds -->
        <line x1="55" y1="35" x2="600" y2="569.5" style="stroke:#000000; stroke-dasharray: 5 5;" />
        <line x1="55" y1="569.5" x2="600" y2="35" style="stroke:#000000; stroke-dasharray: 5 5;" />

        <!-- Stolper -->
        <rect x="110" y="32" height="9.7" width="10" style="stroke:#000000; fill: #ffffff" />
        <rect x="420" y="32" height="9.7" width="10" style="stroke:#000000; fill: #ffffff" />
        <rect x="730" y="32" height="9.7" width="10" style="stroke:#000000; fill: #ffffff" />
        <rect x="110" y="562" height="9.7" width="10" style="stroke:#000000; fill: #ffffff" />
        <rect x="420" y="562" height="9.7" width="10" style="stroke:#000000; fill: #ffffff" />
        <rect x="730" y="562" height="9.7" width="10" style="stroke:#000000; fill: #ffffff" />

        <!-- Skur -->
        <rect x="524" y="1" height="400" width="250" style="stroke:#000000; stroke-dasharray: 10 5; fill: none" />

        <!-- Skur stolper -->
        <rect x="524" y="1" height="9.7" width="10" style="stroke:#000000; fill: #ffffff" />
        <rect x="765" y="1" height="9.7" width="10" style="stroke:#000000; fill: #ffffff" />
        <rect x="524" y="390" height="9.7" width="10" style="stroke:#000000; fill: #ffffff" />
        <rect x="765" y="390" height="9.7" width="10" style="stroke:#000000; fill: #ffffff" />


    </svg>

</svg>