<?xml version="1.0" ?>

<svg version="1.1"
     xmlns="http://www.w3.org/2000/svg"
     xmlns:xlink="http://www.w3.org/1999/xlink"
     height="100%" viewBox="0 0 855 500"
         preserveAspectRatio="xMinYMin">

        <defs>
            <marker id="beginArrow" markerWidth="12" markerHeight="12" refX="0" refY="6" orient="auto">
                <path d="M0,6 L12,0 L12,12 L0,6" style="fill: #000000;" />
            </marker>
            <marker id="endArrow" markerWidth="12" markerHeight="12" refX="12" refY="6" orient="auto">
                <path d="M0,0 L12,6 L0,12 L0,0 " style="fill: #000000;" />
            </marker>
        </defs>

        svgsideways



        <svg version="1.1" xmlns="http://www.w3.org/2000/svg" xmlns:xlink="http://www.w3.org/1999/xlink" x="95" y="10" width="730" height="305" viewBox="0 0 730 305" preserveAspectRatio="xMinYMin">

            <!-- Ramme carport height +20 width+50-->
            <rect x="-90" y="-20" height="380" width="850" style="stroke:#000000; fill: #ffffff" />

            <!-- Spær           skal bruge x=10+(foregående spær's x+spærafstand)-->
            <rect x="35" y="2.5" height="87.5" width="4.5" style="stroke:#000000; fill: #ffffff" />
            <rect x="124" y="2.5" height="87.5" width="4.5" style="stroke:#000000; fill: #ffffff" />
            <rect x="213" y="2.5" height="87.5" width="4.5" style="stroke:#000000; fill: #ffffff" />
            <rect x="302" y="2.5" height="87.5" width="4.5" style="stroke:#000000; fill: #ffffff" />
            <rect x="391" y="2.5" height="87.5" width="4.5" style="stroke:#000000; fill: #ffffff" />
            <rect x="480" y="2.5" height="87.5" width="4.5" style="stroke:#000000; fill: #ffffff" />
            <rect x="590" y="2.5" height="87.5" width="4.5" style="stroke:#000000; fill: #ffffff" />
            <rect x="700" y="2.5" height="87.5" width="4.5" style="stroke:#000000; fill: #ffffff" />

            <!-- Tag -->
            <rect x="0" y="2.5" height="4.5" width="730" style="stroke:#000000; fill: #ffffff" />
            <rect x="0" y="25" height="4.5" width="730" style="stroke:#000000; fill: #ffffff" />
            <rect x="0" y="45" height="4.5" width="730" style="stroke:#000000; fill: #ffffff" />
            <rect x="0" y="65" height="4.5" width="730" style="stroke:#000000; fill: #ffffff" />
            <rect x="0" y="80" height="4.5" width="730" style="stroke:#000000; fill: #ffffff" />
            <!-- tagryg      skal brugewidth=carportlength-->
            <rect x="0" y="2.5" height="10" width="730" style="stroke:#000000; fill: #ffffff" />


            <!--vindskede rect 2 skal bruge x=carportwidth+5-->
            <rect x="-5" y="0" height="85" width="10" style="stroke:#000000; fill: #ffffff" />
            <rect x="725" y="0" height="85" width="10" style="stroke:#000000; fill: #ffffff" />
            <!--vand bræt på vindskede skal bruge x=carportwidth+5-->
            <rect x="-5" y="70" height="2.5" width="10" style="stroke:#000000; fill: #ffffff" />
            <rect x="725" y="70" height="2.5" width="10" style="stroke:#000000; fill: #ffffff" />

            <!-- Stolper x=afstand på stolper-->
            <rect x="80" y="95" height="210" width="10" style="stroke:#000000; fill: #ffffff" />
            <rect x="355" y="95" height="210" width="10" style="stroke:#000000; fill: #ffffff" />
            <rect x="475" y="95" height="210" width="10" style="stroke:#000000; fill: #ffffff" />
            <rect x="700" y="95" height="210" width="10" style="stroke:#000000; fill: #ffffff" />

            <!-- Rem            skal bruge x=(Carportlength-udhæng-Skurlængden) -->
            <rect x="30" y="90" height="19.5" width="450" style="stroke:#000000; fill: #ffffff" />

            <!-- Rem skur -     skal bruge x=(Carportlength-udhæng-Skurlængden) width= skurlængde-->
            <rect x="480" y="90" height="19.5" width="230" style="stroke:#000000; fill: #ffffff" />
            <!-- Sternbræt      skal bruge  width = carportlength-->
            <rect x="0" y="80" height="15" width="730" style="stroke:#000000; fill: #ffffff" />

            <!-- Bottom of roof x2= carporthlength-->
            <line x1="00" y1="85" x2="730" y2="85" style="stroke:#000000; fill: #ffffff"/>
            <!-- Skur -->
            <rect x="475" y="105" height="200" width="10" style="stroke:#000000; fill: #ffffff" />
            <rect x="490" y="105" height="200" width="10" style="stroke:#000000; fill: #ffffff" />
            <rect x="505" y="105" height="200" width="10" style="stroke:#000000; fill: #ffffff" />
            <rect x="520" y="105" height="200" width="10" style="stroke:#000000; fill: #ffffff" />
            <rect x="535" y="105" height="200" width="10" style="stroke:#000000; fill: #ffffff" />
            <rect x="550" y="105" height="200" width="10" style="stroke:#000000; fill: #ffffff" />
            <rect x="565" y="105" height="200" width="10" style="stroke:#000000; fill: #ffffff" />
            <rect x="580" y="105" height="200" width="10" style="stroke:#000000; fill: #ffffff" />
            <rect x="595" y="105" height="200" width="10" style="stroke:#000000; fill: #ffffff" />
            <rect x="610" y="105" height="200" width="10" style="stroke:#000000; fill: #ffffff" />
            <rect x="625" y="105" height="200" width="10" style="stroke:#000000; fill: #ffffff" />
            <rect x="645" y="105" height="200" width="10" style="stroke:#000000; fill: #ffffff" />
            <rect x="660" y="105" height="200" width="10" style="stroke:#000000; fill: #ffffff" />
            <rect x="675" y="105" height="200" width="10" style="stroke:#000000; fill: #ffffff" />
            <rect x="690" y="105" height="200" width="10" style="stroke:#000000; fill: #ffffff" />
            <rect x="705" y="105" height="200" width="7.5" style="stroke:#000000; fill: #ffffff" />
            <!-- Skur stolper -->

            <!-- Pile -->
            <line x1="00" y1="325" x2="00" y2="109.5" style="stroke:#000000; fill: #ffffff"/>
            <line x1="730" y1="325" x2="730" y2="109.5" style="stroke:#000000; fill: #ffffff"/>
            <!-- y2=carport length+20-->
            <line x1="-15" y1="305" x2="750" y2="305" style="stroke:#000000; fill: #ffffff"/>


            <!-- Tagsten -->
            <line x1="200" y1="250" x2="200" y2="270.4" style="stroke:#000000; fill: #ffffff"/>
            <line x1="223.6" y1="250" x2="223.6" y2="270.4" style="stroke:#000000; fill: #ffffff"/>
            <path d="M 200 250.4 Q 211.8 260 223.6 250.4" style="stroke:#000000; fill: #ffffff"/>
            <path d="M 200 270.4 Q 211.8 280 223.6 270.4" style="stroke:#000000; fill: #ffffff"/>



        </svg>
    <!-- Pile -->
    <line x1="30" y1="10" x2="30" y2="315" style="stroke:#000000;
        marker-start: url(#beginArrow);
        marker-end: url(#endArrow);" />

    <line x1="60" y1="105" x2="60" y2="315" style="stroke:#000000;
        marker-start: url(#beginArrow);
        marker-end: url(#endArrow);" />

    <line x1="95" y1="350" x2="175" y2="350" style="stroke:#000000;
        marker-start: url(#beginArrow);
        marker-end: url(#endArrow);" />

    <line x1="175" y1="350" x2="450" y2="350" style="stroke:#000000;
        marker-start: url(#beginArrow);
        marker-end: url(#endArrow);" />

    <line x1="450" y1="350" x2="570" y2="350" style="stroke:#000000;
        marker-start: url(#beginArrow);
        marker-end: url(#endArrow);" />

    <line x1="570" y1="350" x2="795" y2="350" style="stroke:#000000;
        marker-start: url(#beginArrow);
        marker-end: url(#endArrow);" />

    <line x1="795" y1="350" x2="825" y2="350" style="stroke:#000000;
        marker-start: url(#beginArrow);
        marker-end: url(#endArrow);" />

    <!-- Text: Mål -->
    <text style="text-anchor: middle" transform="translate(25,200) rotate(-90)">305 cm</text>
    <text style="text-anchor: middle" transform="translate(50,200) rotate(-90)">210 cm</text>
    <text style="text-anchor: middle" x="135" y="340">80 cm</text>
    <text style="text-anchor: middle" x="300" y="340">275 cm</text>

    <text style="text-anchor: middle" x="510" y="340">120 cm</text>
    <text style="text-anchor: middle" x="670" y="340">225 cm</text>
    <text style="text-anchor: middle" x="805" y="340">30 cm</text>

</svg>